<?xml version="1.0" encoding="utf-8"?>
<!-- Generator: Adobe Illustrator 27.4.1, SVG Export Plug-In . SVG Version: 6.00 Build 0)  -->
<svg version="1.1" id="Layer_1" xmlns="http://www.w3.org/2000/svg" xmlns:xlink="http://www.w3.org/1999/xlink" x="0px" y="0px"
	 viewBox="0 0 391 197.75" style="enable-background:new 0 0 391 197.75;" xml:space="preserve">
<style type="text/css">
	.st0{fill:#FFFFFF;}
</style>
<g>
	<path class="st0" d="M7.96,10.27h53.38v9.21H18.39v24.97h38.62v9.21H18.39v34.29H7.96V10.27z"/>
	<path class="st0" d="M64.31,58.1V10.27h10.32v47.61c0,14.87,9.1,22.53,20.31,22.53c11.21,0,20.31-7.66,20.31-22.53V10.27h10.32
		V58.1c0,20.31-13.32,31.52-30.63,31.52S64.31,78.41,64.31,58.1z"/>
	<path class="st0" d="M155.24,19.25h-26.63v-8.99h63.59v8.99h-26.63v68.7h-10.32V19.25z"/>
	<path class="st0" d="M195.23,58.1V10.27h10.32v47.61c0,14.87,9.1,22.53,20.31,22.53c11.21,0,20.31-7.66,20.31-22.53V10.27h10.32
		V58.1c0,20.31-13.32,31.52-30.63,31.52S195.23,78.41,195.23,58.1z"/>
	<path class="st0" d="M266.85,10.27h29.85c17.76,0,27.86,8.66,27.86,21.31c0,9.99-6.33,17.31-17.53,19.53v0.22
		c9.32,3.66,12.76,10.76,15.43,20.53l4.44,16.09h-10.65l-3.66-13.54c-4-14.87-8.1-18.53-21.53-18.53h-13.87v32.07h-10.32V10.27z
		 M291.6,46.78c14.43,0,22.2-4.99,22.2-14.32c0-8.21-6.1-12.98-17.2-12.98h-19.42v27.3H291.6z"/>
	<path class="st0" d="M331.68,10.27h53.38v9.21h-42.95v24.97h38.62v9.21h-38.62v25.08h43.06v9.21h-53.49V10.27z"/>
	<path class="st0" d="M53.79,175.46v9.21H7.96v-77.68h10.32v68.47H53.79z"/>
	<path class="st0" d="M56.76,106.99h10.32v77.68H56.76V106.99z"/>
	<path class="st0" d="M77.45,106.99h53.38v9.21H87.88v24.97h38.62v9.21H87.88v34.29H77.45V106.99z"/>
	<path class="st0" d="M133.8,106.99h53.38v9.21h-42.95v24.97h38.62v9.21h-38.62v25.08h43.06v9.21H133.8V106.99z"/>
</g>
</svg>
