<?xml version="1.0" encoding="utf-8"?>
<!-- Generator: Adobe Illustrator 27.4.1, SVG Export Plug-In . SVG Version: 6.00 Build 0)  -->
<svg version="1.1" id="Layer_1" xmlns="http://www.w3.org/2000/svg" xmlns:xlink="http://www.w3.org/1999/xlink" x="0px" y="0px"
	 viewBox="0 0 555.5 199.5" style="enable-background:new 0 0 555.5 199.5;" xml:space="preserve">
<style type="text/css">
	.st0{fill:#FFFFFF;}
</style>
<g>
	<path class="st0" d="M68.98,10.27h33.18c15.54,0,26.75,8.77,26.75,23.53c0,14.76-11.21,23.08-26.75,23.08H79.3v31.07H68.98V10.27z
		 M100.94,47.67c10.65,0,17.2-5.22,17.2-13.87s-6.55-14.32-17.2-14.32H79.3v28.19H100.94z"/>
	<path class="st0" d="M133.19,10.27h29.85c17.76,0,27.85,8.66,27.85,21.31c0,9.99-6.33,17.31-17.53,19.53v0.22
		c9.32,3.66,12.76,10.76,15.43,20.53l4.44,16.09h-10.65l-3.66-13.54c-4-14.87-8.1-18.53-21.53-18.53h-13.87v32.07h-10.32V10.27z
		 M157.93,46.78c14.43,0,22.2-4.99,22.2-14.32c0-8.21-6.1-12.98-17.2-12.98h-19.42v27.3H157.93z"/>
	<path class="st0" d="M222.35,10.27h10.54l29.19,77.68h-10.88l-7.33-20.75h-32.52l-7.33,20.75h-10.88L222.35,10.27z M240.55,58.1
		L235.23,43c-2.55-7.1-4.99-14.21-7.55-21.31h-0.11c-2.55,7.1-4.99,14.21-7.55,21.31L214.7,58.1H240.55z"/>
	<path class="st0" d="M257.59,49c0-24.64,14.32-40.4,38.18-40.4c22.08,0,34.29,14.21,35.85,31.41h-10.65
		c-0.89-11.76-9.65-22.2-25.19-22.2c-16.98,0-27.41,11.88-27.41,31.18c0,19.31,11.99,31.41,27.41,31.41
		c15.2,0,23.86-11.32,25.19-20.75h10.65c-2,15.98-14.43,29.96-35.85,29.96C273.02,89.62,257.59,73.63,257.59,49z"/>
	<path class="st0" d="M355.29,19.25h-26.63v-8.99h63.59v8.99h-26.63v68.7h-10.32V19.25z"/>
	<path class="st0" d="M395.28,10.27h10.32v77.68h-10.32V10.27z"/>
	<path class="st0" d="M412.11,49c0-24.64,14.32-40.4,38.18-40.4c22.08,0,34.29,14.21,35.85,31.41h-10.65
		c-0.89-11.76-9.65-22.2-25.19-22.2c-16.98,0-27.41,11.88-27.41,31.18c0,19.31,11.99,31.41,27.41,31.41
		c15.2,0,23.86-11.32,25.19-20.75h10.65c-2,15.98-14.43,29.96-35.85,29.96C427.54,89.62,412.11,73.63,412.11,49z"/>
	<path class="st0" d="M492.45,10.27h53.38v9.21h-42.95v24.97h38.62v9.21h-38.62v25.08h43.06v9.21h-53.49V10.27z"/>
</g>
<g>
	<path class="st0" d="M244.34,110.55h29.85c17.76,0,27.85,8.66,27.85,21.31c0,9.99-6.33,17.31-17.53,19.53v0.22
		c9.32,3.66,12.76,10.76,15.43,20.53l4.44,16.09h-10.65l-3.66-13.54c-4-14.87-8.1-18.53-21.53-18.53h-13.87v32.07h-10.32V110.55z
		 M269.09,147.06c14.43,0,22.2-4.99,22.2-14.32c0-8.21-6.1-12.98-17.2-12.98h-19.42v27.3H269.09z"/>
	<path class="st0" d="M304.15,149.39c0-25.97,17.64-40.51,37.95-40.51c20.31,0,37.95,14.54,37.95,40.51s-17.65,40.51-37.95,40.51
		C321.79,189.9,304.15,175.36,304.15,149.39z M342.1,180.69c14.98,0,27.19-10.43,27.19-31.29c0-20.86-12.21-31.3-27.19-31.3
		c-14.98,0-27.19,10.43-27.19,31.3C314.91,170.26,327.12,180.69,342.1,180.69z"/>
	<path class="st0" d="M382.55,149.39c0-25.97,17.64-40.51,37.95-40.51c20.31,0,37.95,14.54,37.95,40.51s-17.65,40.51-37.95,40.51
		C400.19,189.9,382.55,175.36,382.55,149.39z M420.5,180.69c14.98,0,27.19-10.43,27.19-31.29c0-20.86-12.21-31.3-27.19-31.3
		c-14.98,0-27.19,10.43-27.19,31.3C393.31,170.26,405.52,180.69,420.5,180.69z"/>
	<path class="st0" d="M465.04,110.55h15.09l23.19,66.25h0.22l23.19-66.25h15.09v77.68h-10.1v-49.5c0-4.44,0.11-8.88,0.11-13.32
		h-0.22l-22.31,62.81h-11.76l-22.31-62.81h-0.22c0,4.44,0.11,8.88,0.11,13.32v49.5h-10.1V110.55z"/>
</g>
<g>
	<g>
		<g>
			<path class="st0" d="M38.5,24.08c-1.27,0.15-2.42,0.56-3.44,1.22c-1.02,0.66-1.83,1.49-2.41,2.5c-0.58,1.01-0.87,2.07-0.87,3.19
				h-2.23c0-1.15,0.22-2.2,0.65-3.15c0.43-0.95,1.1-1.78,2-2.49c0.9-0.71,2.03-1.27,3.4-1.68l0.18,0.48l-15.81,0.14l0-2.41
				l15.81,0.14l-0.18,0.48c-1.36-0.41-2.5-0.97-3.4-1.68c-0.9-0.71-1.57-1.54-2-2.49c-0.43-0.95-0.65-2-0.65-3.15h2.23
				c0,1.12,0.29,2.18,0.87,3.19c0.58,1.01,1.39,1.84,2.41,2.5c1.02,0.66,2.17,1.06,3.44,1.22V24.08z"/>
		</g>
		<g>
			<path class="st0" d="M17.83,33.6c-0.91-0.92-1.68-1.93-2.31-3.01c-0.63-1.08-1.11-2.22-1.43-3.42c-0.33-1.2-0.49-2.44-0.49-3.73
				c0-1.29,0.16-2.52,0.47-3.69c0.31-1.17,0.76-2.29,1.36-3.35c0.6-1.06,1.34-2.05,2.22-2.98c0.03-0.03,0.06-0.06,0.09-0.08
				c0.03-0.02,0.06-0.05,0.09-0.08h2c-0.11,0.11-0.21,0.22-0.32,0.34c-0.11,0.12-0.2,0.25-0.3,0.39c-0.76,0.89-1.39,1.84-1.89,2.85
				c-0.5,1.01-0.88,2.06-1.14,3.16c-0.26,1.1-0.39,2.25-0.39,3.44c0,1.36,0.16,2.65,0.49,3.85c0.33,1.2,0.79,2.33,1.39,3.37
				c0.6,1.05,1.32,2.02,2.17,2.93H17.83z"/>
		</g>
		<g>
			<path class="st0" d="M38.91,33.6c0.85-0.91,1.57-1.89,2.17-2.93c0.6-1.05,1.06-2.17,1.39-3.37c0.33-1.2,0.49-2.49,0.49-3.85
				c0-1.2-0.13-2.34-0.39-3.44c-0.26-1.1-0.64-2.15-1.14-3.16c-0.5-1.01-1.13-1.96-1.89-2.85c-0.09-0.14-0.19-0.26-0.3-0.39
				c-0.11-0.12-0.21-0.23-0.32-0.34h2c0.03,0.03,0.06,0.06,0.09,0.08c0.03,0.02,0.06,0.05,0.09,0.08c0.88,0.92,1.62,1.92,2.22,2.98
				c0.6,1.06,1.05,2.18,1.36,3.35c0.31,1.17,0.47,2.4,0.47,3.69c0,1.29-0.16,2.53-0.49,3.73c-0.33,1.2-0.8,2.34-1.43,3.42
				c-0.63,1.08-1.4,2.09-2.31,3.01H38.91z"/>
		</g>
	</g>
</g>
</svg>
