<?xml version="1.0" encoding="utf-8"?>
<!-- Generator: Adobe Illustrator 27.4.1, SVG Export Plug-In . SVG Version: 6.00 Build 0)  -->
<svg version="1.1" id="Layer_1" xmlns="http://www.w3.org/2000/svg" xmlns:xlink="http://www.w3.org/1999/xlink" x="0px" y="0px"
	 viewBox="0 0 1097 154.5" style="enable-background:new 0 0 1097 154.5;" xml:space="preserve">
<style type="text/css">
	.st0{fill:#FFFFFF;}
</style>
<g>
	<path class="st0" d="M44.4,139.47h-5.44v-19.94c-5.1,6.57-12.35,13.54-19.48,17.16l-2.78-4.81c6.68-2.95,14.84-10.42,19.54-16.82
		H17.83v-5.04h21.13v-8.67H21.91v-4.98h17.05v-8.61h5.44v8.61h17.5v4.98H44.4v8.67h21.52v5.04H47.06
		c4.76,6.4,12.97,13.93,19.65,16.82l-2.72,4.87c-7.19-3.62-14.5-10.82-19.6-17.39V139.47z"/>
	<path class="st0" d="M103.36,139.47h-5.44v-18.18c-5.1,6.23-12.18,12.74-19.37,16.09l-2.55-4.93c7.93-3.17,17.22-11.72,21.92-19.2
		V99.88H77.54v-4.87h20.39v-7.25h5.44v7.25h21.07v4.87h-21.07v13.08c0.45,0.96,1.02,1.76,1.53,2.49c3.68-3.17,6-9.06,7.19-14.61
		l4.93,0.96c-0.45,2.1-1.13,4.36-1.93,6.23c1.08,0.79,2.32,1.76,3.51,2.72l0.51,0.4c2.27,1.87,4.47,3.74,5.78,4.98l-3.68,3.51
		c-1.64-1.81-5.21-4.87-8.1-7.31c-1.25,2.15-2.83,4.3-4.36,5.78c-0.85-0.68-2.49-1.87-3.74-2.49c4.87,6.68,13.31,13.82,20.62,16.54
		l-2.66,5.27c-7.48-3.34-14.56-9.97-19.6-16.31V139.47z M80.6,121.12l-3.34-3.79c4.42-3.4,8.21-9.74,9.8-16.48l4.87,1.02
		c-0.51,2.15-1.25,4.36-2.04,6.29c2.15,1.81,4.59,4.19,5.89,5.55l-3.46,3.62c-0.96-1.19-2.78-3.12-4.53-4.76
		C86.03,115.74,83.37,118.8,80.6,121.12z"/>
	<path class="st0" d="M183.42,101.01h-48.88v-4.59h12.74c-0.96-1.93-3.06-4.76-4.7-6.68l4.81-1.7c2.04,2.15,4.42,5.32,5.38,7.36
		l-2.83,1.02h17.33l-1.93-0.85c1.7-2.1,3.62-5.55,4.81-7.93l5.55,1.76c-0.51,0.68-1.02,1.42-1.59,2.1l-0.34,0.45
		c-1.25,1.64-2.55,3.23-3.62,4.47h13.25V101.01z M147.57,139.59l-0.34-4.36c1.7,0.11,3.68,0.11,4.36,0.11s0.96-0.45,0.96-1.19
		v-16.82l-1.81,2.95c-1.47-1.3-5.04-3.23-7.59-4.3l2.44-2.83c2.49,0.91,5.38,2.61,6.97,3.91v-7.14h-9.46v14.56l2.1-2.49
		c2.72,1.08,5.72,3.12,7.31,4.59l-2.04,3.06c-1.53-1.42-4.7-3.46-7.36-4.64v14.56h-4.87V105.6h19.31v28.6
		c0,2.32-0.62,3.85-2.15,4.53C153.74,139.53,151.64,139.59,147.57,139.59z M167.56,128.99h-4.81v-22.83h4.81V128.99z M167.28,139.59
		l-0.34-4.81c1.59,0.06,3.68,0.11,5.04,0.11h0.45c0.28,0,0.51,0,0.68,0c0.85,0,1.25-0.45,1.25-1.3v-29.06h4.98v29.06
		c0,2.66-0.62,4.36-2.49,5.15C175.09,139.53,171.98,139.64,167.28,139.59z"/>
	<path class="st0" d="M194.54,139.08c-0.74-1.08-2.83-2.89-4.02-3.46c3.34-6.57,4.02-17.11,4.08-23.96V92.23l2.95,0.85
		c5.04-1.19,10.65-3,13.99-4.59l4.13,3.74c-4.47,1.93-10.59,3.68-16.09,4.81v4.13h15.63v18.01h-15.8
		C198.96,125.37,197.48,133.87,194.54,139.08z M210.28,114.61v-8.84h-10.71v6.4c0,0.28,0,0.57,0,0.85v0.51c0,0.4,0,0.74,0,1.08
		H210.28z M236.22,139.53h-5.15v-28.32h-7.76c-0.34,8.21-2.49,20.84-9.63,28.26c-0.68-1.08-2.55-3-3.79-3.57
		c7.36-7.7,8.44-20.11,8.44-28.15v-14.9l3.91,0.91c5.27-1.42,10.99-3.51,14.27-5.38l4.59,3.74c-4.81,2.38-11.72,4.47-17.73,5.95
		v8.27h18.52v4.87h-5.66V139.53z"/>
</g>
<g>
	<path class="st0" d="M290.54,121.14l6.84-0.74c0,5.46,3.76,8.21,8.9,8.21c4.72,0,8.53-1.48,8.53-5.83c0-4.4-4.98-4.24-10.55-5.46
		c-6.73-1.48-12.72-3.92-12.72-11.02c0-7.9,7.21-10.71,13.88-10.71c7.9,0,14.1,3.07,14.94,11.82l-6.73,1.17
		c-0.21-5.14-3.23-7.68-8.27-7.68c-3.76,0-7.1,1.59-7.1,5.09c0,3.39,4.13,4.45,9.27,5.3c7.79,1.27,14.04,3.29,14.04,11.23
		c0,8.96-7.68,11.45-15.37,11.45C297.91,133.96,290.65,129.94,290.54,121.14z"/>
	<path class="st0" d="M325.56,133.33v-37.1h25.17v5.51h-18.55v10.12h16.59v5.46h-16.59v10.49h18.55v5.51H325.56z"/>
	<path class="st0" d="M380.52,133.33l-3.44-9.75h-14.47l-3.34,9.75h-7.05l14.25-37.1h6.89l14.15,37.1H380.52z M364.57,118.01h10.55
		l-3.13-8.96c-0.69-1.96-1.59-4.5-2.17-6.73h-0.05c-0.69,2.6-1.32,4.4-2.12,6.73L364.57,118.01z"/>
	<path class="st0" d="M419.48,133.17l-0.05,0.16h-7.15c-1.17-1.91-1.48-3.6-1.48-8.48c0-4.45-2.07-6.15-7.26-6.15h-7.05v14.63h-6.62
		v-37.1h13.62c7.37,0,14.79,1.33,14.79,11.08c0,4.56-2.38,7.74-5.83,9.11c3.55,1.38,4.93,4.03,4.93,8S417.73,130.84,419.48,133.17z
		 M403.05,113.4c4.45,0,8.69-0.53,8.69-5.83c0-5.72-4.24-5.99-8.64-5.99h-6.62v11.82H403.05z"/>
	<path class="st0" d="M421.19,114.78c0-11.23,6.47-19.18,18.18-19.18c7.95,0,14.47,3.97,16.53,12.08l-6.89,1.33
		c-1.01-4.61-4.13-8.05-9.59-8.05c-3.76,0-6.78,1.01-8.58,3.5c-1.75,2.38-2.6,5.88-2.6,10.33c0,4.5,0.64,7.58,2.28,10.02
		c1.8,2.54,4.72,3.82,8.85,3.82c5.46,0,8.53-3.23,9.8-7.47l7,1.85c-2.86,7.1-8.74,10.97-16.8,10.97
		C427.87,133.96,421.19,127.13,421.19,114.78z"/>
	<path class="st0" d="M459.32,133.33v-37.1h6.62v15.53h16.22V96.23h6.62v37.1h-6.62v-15.9h-16.22v15.9H459.32z"/>
	<path class="st0" d="M505.8,133.33v-37.1h25.17v5.51h-18.6v10.12h16.64v5.46h-16.64v16H505.8z"/>
	<path class="st0" d="M531.8,114.78c0-11.23,6.52-19.18,18.18-19.18c11.55,0,18.18,8,18.18,19.18c0,11.34-6.62,19.18-18.18,19.18
		C538.48,133.96,531.8,127.13,531.8,114.78z M558.46,124.9c1.8-2.44,2.65-5.99,2.65-10.12c0-4.24-0.95-7.79-2.65-10.12
		c-1.8-2.49-4.61-3.71-8.27-3.71c-3.97,0-6.94,1.38-8.64,3.55c-1.7,2.17-2.7,6.09-2.7,10.28c0,4.5,1.01,8.05,2.49,10.07
		c1.91,2.54,5.03,3.76,8.64,3.76C553.85,128.61,556.71,127.39,558.46,124.9z"/>
	<path class="st0" d="M601.88,133.17l-0.05,0.16h-7.15c-1.17-1.91-1.48-3.6-1.48-8.48c0-4.45-2.07-6.15-7.26-6.15h-7.05v14.63h-6.62
		v-37.1h13.62c7.37,0,14.79,1.33,14.79,11.08c0,4.56-2.38,7.74-5.83,9.11c3.55,1.38,4.93,4.03,4.93,8S600.13,130.84,601.88,133.17z
		 M585.45,113.4c4.45,0,8.69-0.53,8.69-5.83c0-5.72-4.24-5.99-8.64-5.99h-6.62v11.82H585.45z"/>
	<path class="st0" d="M626.15,133.33v-15.58l-13.04-21.52h7.58l5.14,9.17c0.58,1.01,2.33,4.4,3.66,7c1.38-2.54,2.6-5.03,3.71-7
		l5.19-9.17h7.47l-13.09,21.52v15.58H626.15z"/>
	<path class="st0" d="M643.8,114.78c0-11.23,6.52-19.18,18.18-19.18c11.55,0,18.18,8,18.18,19.18c0,11.34-6.62,19.18-18.18,19.18
		C650.48,133.96,643.8,127.13,643.8,114.78z M670.45,124.9c1.8-2.44,2.65-5.99,2.65-10.12c0-4.24-0.95-7.79-2.65-10.12
		c-1.8-2.49-4.61-3.71-8.27-3.71c-3.97,0-6.94,1.38-8.64,3.55c-1.7,2.17-2.7,6.09-2.7,10.28c0,4.5,1.01,8.05,2.49,10.07
		c1.91,2.54,5.03,3.76,8.64,3.76C665.84,128.61,668.71,127.39,670.45,124.9z"/>
	<path class="st0" d="M683.88,121.03v-24.8h6.62v24.54c0,5.25,3.71,7.68,8.43,7.68c4.66,0,8.48-2.44,8.48-7.68V96.23h6.62v24.8
		c0,8.43-5.25,12.93-15.1,12.93C689.07,133.96,683.88,129.46,683.88,121.03z"/>
	<path class="st0" d="M749.46,133.17l-0.05,0.16h-7.15c-1.17-1.91-1.48-3.6-1.48-8.48c0-4.45-2.07-6.15-7.26-6.15h-7.05v14.63h-6.62
		v-37.1h13.62c7.37,0,14.79,1.33,14.79,11.08c0,4.56-2.38,7.74-5.83,9.11c3.55,1.38,4.93,4.03,4.93,8S747.71,130.84,749.46,133.17z
		 M733.03,113.4c4.45,0,8.69-0.53,8.69-5.83c0-5.72-4.24-5.99-8.64-5.99h-6.62v11.82H733.03z"/>
	<path class="st0" d="M764.3,133.33v-37.1h25.17v5.51h-18.6v10.12h16.64v5.46h-16.64v16H764.3z"/>
	<path class="st0" d="M792.13,121.03v-24.8h6.62v24.54c0,5.25,3.71,7.68,8.43,7.68c4.66,0,8.48-2.44,8.48-7.68V96.23h6.62v24.8
		c0,8.43-5.25,12.93-15.1,12.93C797.32,133.96,792.13,129.46,792.13,121.03z"/>
	<path class="st0" d="M836.62,133.33v-31.48h-12.03v-5.62h30.74v5.62h-12.08v31.48H836.62z"/>
	<path class="st0" d="M857.63,121.03v-24.8h6.62v24.54c0,5.25,3.71,7.68,8.43,7.68c4.66,0,8.48-2.44,8.48-7.68V96.23h6.62v24.8
		c0,8.43-5.25,12.93-15.1,12.93C862.83,133.96,857.63,129.46,857.63,121.03z"/>
	<path class="st0" d="M923.22,133.17l-0.05,0.16h-7.15c-1.17-1.91-1.48-3.6-1.48-8.48c0-4.45-2.07-6.15-7.26-6.15h-7.05v14.63h-6.62
		v-37.1h13.62c7.37,0,14.79,1.33,14.79,11.08c0,4.56-2.38,7.74-5.83,9.11c3.55,1.38,4.93,4.03,4.93,8S921.47,130.84,923.22,133.17z
		 M906.79,113.4c4.45,0,8.69-0.53,8.69-5.83c0-5.72-4.24-5.99-8.64-5.99h-6.62v11.82H906.79z"/>
	<path class="st0" d="M927.09,133.33v-37.1h25.17v5.51h-18.55v10.12h16.59v5.46h-16.59v10.49h18.55v5.51H927.09z"/>
	<path class="st0" d="M967.64,133.33v-37.1h6.57v31.48h18.6v5.62H967.64z"/>
	<path class="st0" d="M995.29,133.33v-37.1h6.62v37.1H995.29z"/>
	<path class="st0" d="M1007.83,133.33v-37.1h25.17v5.51h-18.6v10.12h16.64v5.46h-16.64v16H1007.83z"/>
	<path class="st0" d="M1035.81,133.33v-37.1h25.17v5.51h-18.55v10.12h16.59v5.46h-16.59v10.49h18.55v5.51H1035.81z"/>
</g>
<g>
	<g>
		<path class="st0" d="M70.74,58.2c0,2.37,0,4.48,0,6.79c-19.13,0-38.11,0-57.33,0c0-2.31,0-4.49,0-6.79
			C32.53,58.2,51.44,58.2,70.74,58.2z"/>
		<path class="st0" d="M53.68,20.25c-3.21,0-6.05,0-8.91,0c4.43-4.35,8.73-8.57,13.11-12.87c3.75,3.97,7.92,8.39,12.01,12.72
			c-2.42,0-5.33,0-8.58,0c0,10.27,0,20.25,0,30.39c-2.65,0-4.95,0-7.63,0C53.68,40.42,53.68,30.46,53.68,20.25z"/>
		<path class="st0" d="M23.01,20.18c-3.45,0-6.29,0-9.13,0c4.37-4.42,8.61-8.71,12.81-12.96c4.05,4.13,8.24,8.41,12.56,12.82
			c-2.72,0-5.61,0-8.87,0c0,10.35,0,20.31,0,30.44c-2.59,0-4.79,0-7.37,0C23.01,40.52,23.01,30.55,23.01,20.18z"/>
	</g>
</g>
</svg>
