<?xml version="1.0" encoding="utf-8"?>
<!-- Generator: Adobe Illustrator 27.4.1, SVG Export Plug-In . SVG Version: 6.00 Build 0)  -->
<svg version="1.1" id="Layer_1" xmlns="http://www.w3.org/2000/svg" xmlns:xlink="http://www.w3.org/1999/xlink" x="0px" y="0px"
	 viewBox="0 0 154.55 154.55" style="enable-background:new 0 0 154.55 154.55;" xml:space="preserve">
<style type="text/css">
	.st0{fill:#FFFFFF;}
</style>
<g id="_x36_peLik_00000023266467882151701640000009438650446796328607_">
	<g>
		<path class="st0" d="M125.14,141c-2.12,0.14-4.23,0.03-6.35,0.06c-1.4,0.02-2.81,0.03-4.21-0.01c-0.52-0.01-0.65,0.17-0.64,0.65
			c0.03,1.4-0.01,2.81,0.02,4.21c0.01,0.54-0.1,0.78-0.71,0.76c-1.43-0.04-2.86-0.02-4.29-0.01c-0.4,0-0.6-0.07-0.59-0.54
			c0.03-3.52,0.03-7.04,0.04-10.57c0.28-0.02,0.56-0.05,0.83-0.05c3.19,0,6.39-0.01,9.58,0.01c0.55,0,0.76-0.11,0.74-0.71
			c-0.05-1.4-0.04-2.81,0-4.22c0.01-0.53-0.14-0.71-0.68-0.7c-1.43,0.03-2.86-0.01-4.29,0.02c-0.5,0.01-0.66-0.16-0.65-0.66
			c0.03-1.46,0-2.91,0.02-4.37c0.01-0.43-0.12-0.58-0.56-0.57c-1.48,0.02-2.96,0.03-4.45,0c-0.51-0.01-0.58,0.19-0.58,0.62
			c0.02,2.55,0,5.11,0.01,7.66c0,0.99,0.03,1.99,0.05,2.98c-1.86-0.18-3.72-0.04-5.58-0.07l0.02,0.02
			c-0.13-1.63-0.05-3.26-0.05-4.89c0-0.55-0.11-0.77-0.71-0.75c-1.4,0.04-2.81,0.04-4.21,0c-0.6-0.02-0.72,0.2-0.71,0.75
			c0.02,1.63-0.02,3.26-0.03,4.89l0.02-0.02c-1.83,0.02-3.66-0.08-5.49,0.05l0.02,0.02c-0.16-2.07-0.05-4.14-0.06-6.2
			c-0.02-5.19-0.01-10.38,0-15.58c0-0.25,0.04-0.51,0.07-0.76l-0.02,0.02c1.73,0.22,3.46,0.05,5.19,0.09
			c0.29,0.01,0.31-0.2,0.31-0.42c0-0.33,0-0.66,0-1c0-4.83,0.02-9.67-0.02-14.5c0-0.69,0.19-0.87,0.86-0.84
			c1.33,0.05,2.66-0.02,3.99,0.03c0.66,0.02,0.81-0.2,0.79-0.82c-0.05-1.33,0.01-2.66-0.03-3.99c-0.02-0.58,0.11-0.8,0.75-0.78
			c1.38,0.05,2.76,0,4.14,0.03c0.5,0.01,0.72-0.08,0.71-0.65c-0.04-1.46-0.03-2.91-0.01-4.37c0.01-0.43-0.12-0.57-0.56-0.57
			c-3.35,0.01-6.7,0.02-10.05,0c-0.5,0-0.59,0.21-0.58,0.64c0.02,1.38-0.02,2.76,0.02,4.14c0.02,0.62-0.12,0.84-0.79,0.82
			c-1.58-0.04-3.17,0-4.75,0.02l0.03,0.02c-0.14-1.99-0.04-3.98-0.06-5.97c-0.02-3.37,0.01-6.75-0.02-10.12
			c-0.01-0.59,0.17-0.73,0.73-0.71c1.4,0.04,2.81,0.03,4.22,0c0.51-0.01,0.65,0.15,0.64,0.65c-0.03,1.43,0.01,2.86-0.02,4.29
			c-0.01,0.51,0.16,0.64,0.66,0.64c3.3-0.02,6.6-0.02,9.89,0c0.58,0,0.65-0.22,0.65-0.71c-0.02-3.25,0-6.49-0.02-9.74
			c0-0.57,0.14-0.74,0.72-0.74c1.61,0.02,3.22-0.02,4.83-0.04c0,0-0.02-0.03-0.02-0.03c0.13,1.6,0.06,3.2,0.04,4.8
			c-0.01,0.67,0.13,0.92,0.86,0.9c1.6-0.05,3.2,0,4.8,0.01l-0.02-0.02c-0.01,5.46-0.01,10.91-0.01,16.37c0,0.15,0.06,0.29,0.1,0.44
			c-1.78-0.16-3.56-0.03-5.35-0.07c-0.4-0.01-0.36,0.27-0.36,0.52c0,1.48,0.01,2.96-0.01,4.44c-0.01,0.47,0.14,0.62,0.61,0.61
			c1.38-0.03,2.76-0.04,4.13,0.01c0.68,0.02,0.91-0.15,0.9-0.87c-0.02-1.55-0.13-3.1,0.07-4.65c1.82-0.14,3.64-0.02,5.45-0.06
			c0,0-0.02-0.02-0.02-0.02c0.01,3.63,0.03,7.26,0.04,10.89c0.01,1.74,0.02,3.48-0.01,5.22c-0.01,0.47,0.09,0.68,0.62,0.66
			c1.61-0.07,3.22,0.07,4.82-0.08c0,0,0,0,0,0c0.22,0.24,0.14,0.53,0.14,0.8c0.01,1.33-0.03,2.66,0.02,3.99
			c0.02,0.65-0.12,0.9-0.83,0.87c-1.35-0.06-2.71,0.01-4.06-0.03c-0.59-0.02-0.73,0.18-0.71,0.74c0.04,1.41,0.04,2.81,0,4.22
			c-0.02,0.55,0.17,0.69,0.7,0.67c1.43-0.03,2.86,0.01,4.3-0.02c0.47-0.01,0.62,0.14,0.61,0.61c-0.02,1.46,0.01,2.91-0.02,4.37
			c-0.01,0.48,0.15,0.61,0.61,0.6c1.46-0.03,2.92-0.03,4.37,0c0.52,0.01,0.64-0.17,0.63-0.66c-0.03-1.41,0.01-2.81-0.02-4.22
			c-0.01-0.5,0.08-0.73,0.66-0.71c1.43,0.04,2.86,0.04,4.29,0c0.52-0.01,0.63,0.18,0.63,0.66c-0.02,3.22,0.01,6.44-0.03,9.66
			c-0.01,0.68,0.18,0.87,0.85,0.85c1.38-0.05,2.76,0,4.14-0.02c0.45-0.01,0.64,0.12,0.63,0.6c-0.03,1.48-0.02,2.97,0,4.45
			c0.01,0.44-0.15,0.57-0.58,0.56c-3.35-0.01-6.7-0.02-10.05,0c-0.47,0-0.55-0.18-0.54-0.59c0.02-1.46-0.01-2.92,0.02-4.37
			c0.01-0.5-0.14-0.66-0.64-0.66c-3.3,0.02-6.6,0.02-9.89,0c-0.56,0-0.67,0.19-0.67,0.7c0.02,3.48,0.01,6.95,0.01,10.43L125.14,141z
			 M111.18,118.75c2.53,0,5.06-0.01,7.59,0.01c0.56,0.01,0.8-0.08,0.8-0.74c-0.03-5.11-0.02-10.22-0.01-15.33
			c0-0.52-0.13-0.7-0.68-0.7c-5.14,0.02-10.27,0.02-15.41,0c-0.55,0-0.68,0.18-0.68,0.7c0.02,5.11,0.02,10.22,0,15.33
			c0,0.56,0.13,0.75,0.72,0.74C106.07,118.74,108.63,118.75,111.18,118.75z"/>
		<path class="st0" d="M58.2,74.13c-0.02-2.07-0.04-4.14-0.05-6.21c-0.01-5.11,0.01-10.23-0.02-15.34c0-0.67,0.17-0.88,0.85-0.85
			c1.38,0.05,2.76,0,4.14,0.03c0.48,0.01,0.6-0.15,0.6-0.61c-0.01-7.03-0.02-14.06,0-21.09c0-0.53-0.19-0.63-0.66-0.62
			c-1.33,0.03-2.66-0.05-3.99,0.03c-0.83,0.05-0.97-0.25-0.94-0.98c0.06-1.3-0.02-2.61,0.03-3.91c0.02-0.6-0.19-0.73-0.75-0.72
			c-1.41,0.03-2.81,0-4.22,0.02c-0.49,0.01-0.68-0.13-0.67-0.65c0.03-1.46,0.03-2.92,0-4.37c-0.01-0.48,0.17-0.6,0.63-0.6
			c3.32,0.02,6.65,0.02,9.97,0c0.49,0,0.6,0.17,0.59,0.62c-0.02,1.38,0.03,2.76-0.02,4.14c-0.02,0.65,0.12,0.9,0.83,0.86
			c1.33-0.06,2.66,0.02,3.99-0.03c0.66-0.03,0.8,0.21,0.8,0.83c-0.02,8.67-0.01,17.34-0.01,26c0,1.23-0.12,1.06,1.05,1.07
			c1.28,0.01,2.56-0.03,3.84,0.02c0.59,0.02,0.72-0.17,0.72-0.74c-0.02-5.04,0-10.07-0.03-15.11c0-0.73,0.17-0.94,0.92-0.94
			c1.53,0.02,3.06,0.14,4.59-0.06c0,0-0.01-0.01-0.01-0.01c0.14,0.32,0.08,0.66,0.08,0.98c0,6.88,0.01,13.76-0.01,20.64
			c0,0.68,0.17,0.85,0.85,0.85c1.63-0.01,3.27-0.13,4.9,0.07l-0.02-0.02c-0.26,1.13-0.05,2.28-0.12,3.42
			c-0.04,0.66,0.28,1.51-0.13,1.93c-0.41,0.42-1.26,0.13-1.92,0.13c-3.02,0-6.03-0.03-9.05-0.04c-0.14-1.63-0.04-3.26-0.05-4.89
			c0-0.44-0.09-0.63-0.59-0.63c-3.35,0.02-6.69,0.02-10.04,0c-0.42,0-0.57,0.11-0.57,0.56c0.02,3.35,0.02,6.69,0,10.04
			c0,0.45,0.16,0.56,0.58,0.56c1.46-0.02,2.91-0.02,4.37,0c0.5,0.01,0.66-0.16,0.65-0.65c-0.03-1.4,0.01-2.81-0.02-4.22
			c-0.01-0.56,0.13-0.74,0.72-0.74c1.66,0.01,3.32,0.1,4.97-0.05c-0.15,0.29-0.08,0.6-0.08,0.9c0,5.03-0.01,10.07,0.01,15.1
			c0,0.62-0.14,0.82-0.79,0.82c-3.47-0.04-6.95-0.04-10.42-0.05l0.02,0.03c0-1.65-0.02-3.31,0.01-4.96
			c0.01-0.46-0.12-0.61-0.59-0.61c-1.65,0.03-3.31,0.01-4.96,0.02C58.17,74.11,58.2,74.13,58.2,74.13z"/>
		<path class="st0" d="M46.98,26.64c0,6.27-0.01,12.53,0.01,18.8c0,0.61-0.17,0.75-0.76,0.75c-12.51-0.02-25.01-0.02-37.52,0
			c-0.7,0-0.83-0.21-0.83-0.86c0.02-12.45,0.02-24.91,0-37.36c0-0.71,0.2-0.89,0.9-0.89c12.45,0.02,24.91,0.02,37.36,0
			c0.66,0,0.85,0.15,0.85,0.84C46.97,14.16,46.98,20.4,46.98,26.64z M41.41,26.69c0-4.42-0.01-8.85,0.01-13.27
			c0-0.57-0.14-0.73-0.72-0.73c-8.82,0.02-17.64,0.02-26.46,0c-0.62,0-0.75,0.19-0.75,0.77c0.02,8.8,0.02,17.59,0,26.39
			c0,0.58,0.13,0.78,0.75,0.78c8.8-0.02,17.59-0.02,26.39,0c0.66,0,0.8-0.2,0.8-0.82C41.4,35.43,41.41,31.06,41.41,26.69z"/>
		<path class="st0" d="M127.85,46.18c-6.24,0-12.48-0.01-18.72,0.01c-0.58,0-0.77-0.12-0.77-0.74c0.02-12.53,0.02-25.06,0-37.59
			c0-0.6,0.16-0.77,0.76-0.77c12.51,0.02,25.01,0.02,37.52,0c0.62,0,0.83,0.14,0.83,0.8c-0.02,12.51-0.02,25.01,0,37.52
			c0,0.66-0.21,0.79-0.82,0.79C140.38,46.17,134.12,46.18,127.85,46.18z M113.95,26.6c0,4.37,0.01,8.74-0.01,13.12
			c0,0.67,0.13,0.91,0.87,0.91c8.74-0.03,17.49-0.03,26.23,0c0.69,0,0.84-0.19,0.84-0.85c-0.02-8.74-0.02-17.49,0-26.23
			c0-0.64-0.11-0.86-0.82-0.86c-8.77,0.03-17.54,0.03-26.31,0c-0.63,0-0.81,0.16-0.81,0.8C113.96,17.86,113.95,22.23,113.95,26.6z"
			/>
		<path class="st0" d="M46.98,127.15c0,6.24-0.01,12.48,0.02,18.72c0,0.64-0.17,0.8-0.81,0.8c-12.48-0.02-24.96-0.02-37.44,0
			c-0.66,0-0.86-0.15-0.86-0.85c0.02-12.48,0.02-24.96,0-37.44c0-0.71,0.23-0.82,0.87-0.82c12.48,0.02,24.96,0.02,37.44,0
			c0.63,0,0.81,0.14,0.81,0.79C46.97,114.62,46.98,120.88,46.98,127.15z M27.48,141.06c4.37,0,8.74-0.01,13.12,0.01
			c0.61,0,0.82-0.13,0.82-0.79c-0.02-8.8-0.02-17.59,0-26.39c0-0.62-0.18-0.76-0.78-0.76c-8.8,0.02-17.59,0.02-26.39,0
			c-0.59,0-0.78,0.14-0.77,0.76c0.02,8.82,0.02,17.64,0,26.46c0,0.59,0.17,0.72,0.73,0.71C18.64,141.05,23.06,141.06,27.48,141.06z"
			/>
		<path class="st0" d="M18.98,68.36c0.18-1.83,0.06-3.67,0.07-5.51c0.02-3.45,0.02-6.9-0.01-10.35c-0.01-0.61,0.17-0.79,0.77-0.77
			c1.35,0.04,2.71,0.05,4.06,0c0.67-0.03,0.81,0.23,0.79,0.84c-0.04,1.38,0.01,2.76-0.02,4.14c-0.01,0.5,0.15,0.66,0.65,0.65
			c1.38-0.03,2.76,0.02,4.14-0.02c0.63-0.02,0.82,0.14,0.81,0.79c-0.03,3.2,0,6.39-0.03,9.59c-0.01,0.66,0.19,0.81,0.82,0.79
			c1.35-0.05,2.71,0.01,4.06-0.02c0.51-0.01,0.72,0.11,0.71,0.67c-0.04,1.43-0.03,2.86,0,4.29c0.01,0.5-0.14,0.66-0.65,0.65
			c-1.41-0.03-2.81,0.02-4.22-0.02c-0.57-0.02-0.73,0.14-0.72,0.72c0.03,3.22,0.03,6.44,0,9.66c-0.01,0.64,0.17,0.81,0.8,0.8
			c6.75-0.02,13.5-0.01,20.25-0.01c1.27,0,1.27,0,1.27,1.31c0,1.3,0,2.61-0.01,3.91c0,0.14-0.07,0.29-0.11,0.43l0.01-0.01
			c-0.23-0.02-0.45-0.06-0.68-0.06c-5.06,0-10.11,0.01-15.17-0.02c-0.64,0-0.81,0.17-0.8,0.81c0.03,1.58-0.01,3.16-0.03,4.75
			l0.02-0.02c-3.55,0.01-7.1,0.02-10.65,0.05c-0.62,0-0.46-0.43-0.46-0.74c-0.01-3.86-0.01-7.72-0.01-11.58
			c0-4.91-0.02-9.82,0.02-14.72c0.01-0.73-0.22-0.9-0.9-0.88c-1.33,0.05-2.66,0.02-3.99,0.01C19.51,68.5,19.22,68.55,18.98,68.36
			L18.98,68.36z"/>
		<path class="st0" d="M86.19,57.45c-0.19-0.28-0.13-0.59-0.13-0.9c0-5.04,0.01-10.08-0.02-15.12c0-0.7,0.2-0.86,0.86-0.84
			c1.35,0.05,2.71,0.04,4.07,0c0.54-0.01,0.69,0.16,0.68,0.69c-0.02,3.22,0.01,6.45-0.03,9.67c-0.01,0.64,0.16,0.83,0.8,0.8
			c1.35-0.05,2.71-0.05,4.07,0c0.59,0.02,0.72-0.18,0.72-0.74C97.19,46.01,97.2,41,97.2,35.98c0-0.98,0-0.98,0.99-0.98
			c1.3,0,2.61,0.02,3.91-0.01c0.52-0.01,0.71,0.12,0.71,0.68c-0.01,10.72-0.01,21.44,0,32.16c0,0.55-0.19,0.69-0.71,0.69
			c-3.27-0.02-6.55-0.02-9.82,0c-0.57,0-0.66-0.21-0.66-0.71c0.02-3.22-0.01-6.45,0.03-9.67c0.01-0.66-0.2-0.82-0.82-0.79
			c-1.55,0.08-3.11-0.08-4.67,0.09C86.17,57.43,86.19,57.45,86.19,57.45z"/>
		<path class="st0" d="M58.22,113.07c1.58,0.19,3.16,0.06,4.74,0.07c0.6,0,0.79,0.16,0.77,0.77c-0.05,1.43,0,2.86-0.02,4.3
			c-0.01,0.44,0.13,0.57,0.57,0.57c1.41-0.02,2.81,0.02,4.22-0.02c0.62-0.02,0.83,0.14,0.82,0.8c-0.03,3.2,0,6.39-0.03,9.59
			c0,0.59,0.14,0.81,0.76,0.78c1.38-0.05,2.76,0.01,4.14-0.03c0.59-0.02,0.73,0.18,0.72,0.75c-0.04,1.38,0.01,2.76-0.03,4.14
			c-0.02,0.56,0.12,0.76,0.71,0.74c1.41-0.05,2.81,0,4.22-0.02c0.49-0.01,0.66,0.12,0.65,0.63c-0.02,3.3-0.02,6.6,0,9.9
			c0,0.52-0.16,0.66-0.65,0.65c-1.43-0.03-2.86-0.03-4.3,0c-0.52,0.01-0.64-0.19-0.63-0.67c0.03-1.41-0.02-2.81,0.02-4.22
			c0.02-0.56-0.12-0.75-0.72-0.74c-1.66,0.03-3.32-0.01-4.99-0.02c0,0,0.03,0.03,0.03,0.03c0.02-1.63,0.01-3.27,0.07-4.9
			c0.02-0.56-0.19-0.68-0.71-0.67c-1.63,0.03-3.27,0.02-4.9,0.02l0.02,0.02c0-3.5-0.02-7,0.01-10.5c0-0.57-0.14-0.74-0.72-0.72
			c-1.43,0.04-2.86,0.01-4.29,0.01c-0.28,0-0.57,0.05-0.56-0.4c0.02-3.58,0.03-7.15,0.04-10.73c0-0.05,0.03-0.1,0.05-0.14
			C58.24,113.05,58.22,113.07,58.22,113.07z"/>
		<path class="st0" d="M52.43,90.92c0.33-0.03,0.66-0.07,0.98-0.07c4.97,0,9.94,0,14.9-0.01c0.28,0,0.55-0.04,0.83-0.06l-0.01-0.01
			c0.2,0.18,0.16,0.42,0.16,0.64c0,1.45-0.02,2.91,0.01,4.36c0.01,0.5-0.16,0.65-0.65,0.64c-1.43-0.03-2.85,0.02-4.28-0.02
			c-0.55-0.01-0.67,0.18-0.67,0.7c-0.01,1.68,0.1,3.36-0.06,5.04l0.02-0.02c-1.73-0.22-3.46-0.04-5.19-0.09
			c-0.29-0.01-0.32,0.19-0.32,0.41c0.04,3.55-0.08,7.09,0.06,10.64c0,0,0.02-0.02,0.02-0.02c-1.78,0.23-3.57,0.06-5.35,0.09
			c-0.5,0.01-0.33-0.44-0.33-0.7c-0.01-3.4-0.01-6.8-0.01-10.2c0-3.55,0-7.11-0.01-10.66c0-0.22,0.08-0.46-0.11-0.66
			C52.44,90.91,52.43,90.92,52.43,90.92z"/>
		<path class="st0" d="M80.46,110.37c0,4.4-0.01,8.8,0.01,13.2c0,0.6-0.14,0.78-0.76,0.76c-1.41-0.05-2.81-0.03-4.22,0
			c-0.47,0.01-0.62-0.12-0.61-0.6c0.03-1.46-0.01-2.92,0.02-4.37c0.01-0.47-0.13-0.62-0.6-0.61c-1.43,0.03-2.87-0.02-4.3,0.02
			c-0.6,0.02-0.73-0.19-0.72-0.74c0.03-1.38,0.03-2.76,0-4.14c-0.01-0.56,0.13-0.77,0.73-0.75c1.41,0.04,2.81-0.01,4.22,0.03
			c0.55,0.01,0.68-0.18,0.68-0.7c-0.02-3.25-0.03-6.5,0-9.74c0.01-0.59-0.18-0.73-0.74-0.72c-1.41,0.04-2.81-0.01-4.22,0.02
			c-0.49,0.01-0.68-0.13-0.67-0.64c0.03-1.46,0.02-2.92,0-4.37c-0.01-0.47,0.14-0.61,0.61-0.61c3.3,0.02,6.6,0.02,9.9,0
			c0.56,0,0.67,0.2,0.67,0.71C80.45,101.52,80.46,105.95,80.46,110.37z"/>
		<path class="st0" d="M113.82,62.98c2.12-0.15,4.24-0.03,6.35-0.06c1.35-0.02,2.71-0.04,4.06,0.01c0.66,0.02,0.93-0.11,0.9-0.86
			c-0.07-1.35,0-2.71-0.03-4.06c-0.01-0.47,0.08-0.68,0.62-0.67c1.46,0.04,2.91,0.03,4.37,0c0.46-0.01,0.62,0.13,0.61,0.61
			c-0.02,1.46,0.01,2.91-0.02,4.37c-0.01,0.46,0.13,0.61,0.61,0.61c1.69-0.02,3.37,0.01,5.06,0.02l-0.02-0.02
			c-0.01,1.63-0.04,3.27-0.02,4.9c0.01,0.54-0.17,0.7-0.7,0.69c-1.38-0.03-2.76,0.03-4.13-0.03c-0.66-0.02-0.81,0.21-0.79,0.83
			c0.04,1.33-0.02,2.66,0.03,3.98c0.02,0.62-0.15,0.83-0.8,0.82c-3.45-0.03-6.89-0.01-10.34-0.01l0.02,0.02
			c-0.01-1.25-0.04-2.5-0.04-3.75c-0.01-1.88,0-1.86-1.85-1.89c-1.27-0.02-2.55,0.11-3.82-0.07c0,0,0.02,0.03,0.02,0.03
			c0.02-1.83,0.16-3.65-0.07-5.48C113.84,62.97,113.82,62.98,113.82,62.98z"/>
		<path class="st0" d="M91.71,24c-0.16,1.83-0.04,3.66-0.07,5.49c-0.02,1.63-0.01,3.26,0,4.9c0,0.36,0,0.63-0.5,0.62
			C87.67,34.99,84.21,35,80.74,35c-0.12,0-0.24-0.06-0.37-0.09c0,0,0.01,0.01,0.01,0.01c0.17-1.76,0.04-3.52,0.07-5.27
			c0.02-1.69-0.02-3.37,0.02-5.06c0.01-0.56-0.12-0.76-0.71-0.74c-1.4,0.04-2.81,0-4.21,0.02c-0.48,0.01-0.68-0.12-0.66-0.64
			c0.08-1.68-0.09-3.36,0.09-5.04l-0.02,0.02c1.91,0.14,3.82,0.03,5.73,0.06c1.53,0.02,3.06,0.03,4.59-0.01
			c0.59-0.01,0.8,0.13,0.78,0.75c-0.04,1.4,0,2.81-0.02,4.21c-0.01,0.5,0.15,0.67,0.65,0.66c1.4-0.03,2.81-0.01,4.21-0.01
			C91.18,23.86,91.48,23.79,91.71,24L91.71,24z"/>
		<path class="st0" d="M136.38,85.39c-0.18-1.78-0.03-3.57-0.08-5.36c-0.01-0.46,0.32-0.37,0.59-0.37c1.46,0,2.91-0.02,4.37,0.01
			c0.46,0.01,0.62-0.11,0.61-0.6c-0.03-1.46,0.01-2.91-0.02-4.37c-0.01-0.46,0.13-0.62,0.6-0.61c1.48,0.03,2.97,0.02,4.45,0
			c0.44-0.01,0.57,0.15,0.57,0.57c-0.01,5.19-0.01,10.38,0,15.57c0,0.45-0.11,0.63-0.6,0.62c-1.46-0.03-2.91-0.03-4.37,0
			c-0.5,0.01-0.66-0.14-0.65-0.64c0.03-1.46,0.01-2.91,0.01-4.37c0-0.34-0.01-0.59-0.47-0.58c-1.58,0.02-3.17,0.01-4.75,0.02
			c-0.09,0-0.18,0.07-0.27,0.11L136.38,85.39z"/>
		<path class="st0" d="M136.35,62.95c-0.12-1.85-0.04-3.7-0.04-5.55l-0.02,0.02c1.63-0.15,3.26-0.05,4.9-0.05
			c0.54,0,0.7-0.16,0.68-0.69c-0.03-1.43,0-2.86-0.02-4.29c-0.01-0.43,0.07-0.66,0.58-0.65c1.48,0.03,2.96,0.02,4.45,0
			c0.42-0.01,0.59,0.12,0.59,0.56c-0.01,5.21-0.01,10.43,0,15.64c0,0.45-0.18,0.56-0.6,0.56c-1.48-0.02-2.96-0.02-4.45,0
			c-0.43,0.01-0.58-0.14-0.57-0.58c0.02-1.46-0.01-2.91,0.02-4.37c0.01-0.49-0.12-0.66-0.63-0.65c-1.64,0.03-3.27,0.01-4.91,0.02
			C136.33,62.92,136.35,62.95,136.35,62.95z"/>
		<path class="st0" d="M69.17,12.77c-1.84-0.16-3.67-0.06-5.51-0.07c-3.45-0.02-6.91-0.02-10.36,0.01
			c-0.62,0.01-0.78-0.18-0.76-0.78c0.04-1.41,0.03-2.81,0-4.22c-0.01-0.46,0.14-0.62,0.61-0.62C58.34,7.11,63.54,7.1,68.73,7.1
			c0.3,0,0.57,0,0.57,0.42c-0.02,1.69-0.02,3.37-0.04,5.06c0,0.07-0.07,0.13-0.1,0.2C69.16,12.78,69.17,12.77,69.17,12.77z"/>
		<path class="st0" d="M13.59,68.36c-0.15,0.12-0.32,0.14-0.51,0.14c-1.53,0-3.07-0.01-4.6,0.01c-0.43,0-0.58-0.13-0.58-0.57
			c0.01-5.22,0.01-10.44,0-15.65c0-0.39,0.14-0.54,0.54-0.54c1.51,0.02,3.02,0.03,4.53,0c0.63-0.01,0.54,0.37,0.54,0.75
			c0,5.01,0,10.03,0,15.04C13.5,67.81,13.43,68.1,13.59,68.36C13.58,68.36,13.59,68.36,13.59,68.36z"/>
		<path class="st0" d="M63.7,79.63c0.01,1.69,0,3.37,0.03,5.06c0.01,0.5-0.2,0.59-0.63,0.58c-3.29-0.01-6.59-0.02-9.88,0
			c-0.55,0-0.68-0.19-0.68-0.71c0.02-3.19,0.01-6.38,0.01-9.58c0-0.27,0.07-0.56-0.09-0.82l-0.02,0.02
			c1.92-0.16,3.84-0.07,5.77-0.05c0,0-0.03-0.03-0.03-0.03c-0.01,1.66,0,3.31-0.03,4.97c-0.01,0.48,0.15,0.61,0.61,0.6
			c1.65-0.03,3.31-0.01,4.97-0.02L63.7,79.63z"/>
		<path class="st0" d="M18.97,68.36c0.03,0.23,0.08,0.45,0.08,0.68c0.01,3.32-0.01,6.65,0.02,9.97c0,0.57-0.2,0.66-0.71,0.66
			c-3.25-0.02-6.49-0.02-9.74,0c-0.57,0-0.76-0.14-0.74-0.72c0.04-1.41,0.03-2.81,0-4.22c-0.01-0.5,0.15-0.66,0.66-0.64
			c1.41,0.03,2.81-0.02,4.22,0.03c0.64,0.02,0.76-0.21,0.75-0.78c-0.04-1.35-0.02-2.71-0.01-4.07c0-0.3,0.05-0.61,0.08-0.91
			c0,0-0.01,0-0.01,0c0.2,0.24,0.47,0.13,0.71,0.13c1.32,0.01,2.65,0.01,3.97,0C18.5,68.49,18.78,68.6,18.97,68.36
			C18.98,68.36,18.97,68.36,18.97,68.36z"/>
		<path class="st0" d="M35.76,96.38c3.48,0.01,6.95,0.03,10.43,0.01c0.63,0,0.83,0.15,0.81,0.8c-0.05,1.4-0.03,2.81-0.01,4.22
			c0.01,0.46-0.12,0.62-0.6,0.62c-3.32-0.02-6.65-0.02-9.97,0c-0.53,0-0.64-0.2-0.63-0.68c0.02-1.66-0.01-3.32-0.02-4.98
			C35.78,96.36,35.76,96.38,35.76,96.38z"/>
		<path class="st0" d="M58.16,40.64c0,1.64-0.02,3.27,0.01,4.91c0.01,0.51-0.15,0.65-0.65,0.64c-1.46-0.03-2.91-0.03-4.37,0
			c-0.48,0.01-0.61-0.15-0.6-0.61c0.02-3.32,0.02-6.65,0-9.97c0-0.47,0.14-0.62,0.61-0.61c1.46,0.02,2.91,0.03,4.37,0
			c0.52-0.01,0.65,0.18,0.64,0.67C58.14,37.32,58.16,38.98,58.16,40.64z"/>
		<path class="st0" d="M102.85,135.5c-0.01,3.39-0.03,6.79-0.04,10.18c0,0.97,0,0.97-1.01,0.97c-1.22,0-2.45-0.04-3.67,0.02
			c-0.72,0.03-0.96-0.15-0.95-0.91c0.04-3.42,0-6.84,0-10.26c0,0-0.02,0.02-0.02,0.02c1.9,0,3.81,0,5.71,0
			C102.87,135.53,102.85,135.5,102.85,135.5z"/>
		<path class="st0" d="M141.77,102.13c1.08-0.26,2.18-0.09,3.27-0.1c0.78-0.01,1.78-0.35,2.28,0.16c0.45,0.47,0.13,1.46,0.13,2.22
			c0.01,2.63-0.01,5.26,0.02,7.89c0.01,0.64-0.12,0.9-0.83,0.87c-1.32-0.06-2.66-0.05-3.98,0c-0.63,0.02-0.82-0.15-0.82-0.8
			c0.04-3.14,0.02-6.28,0.01-9.42c0-0.28,0.06-0.56-0.07-0.83L141.77,102.13z"/>
		<path class="st0" d="M41.52,57.45c-0.25-1.19-0.08-2.39-0.1-3.58c-0.01-0.68-0.31-1.54,0.14-1.99c0.42-0.41,1.27-0.12,1.92-0.13
			c2.73-0.01,5.47,0.01,8.2-0.02c0.64-0.01,0.91,0.12,0.87,0.83c-0.06,1.33-0.05,2.66,0,3.98c0.02,0.62-0.14,0.83-0.8,0.82
			c-3.14-0.03-6.29-0.02-9.43-0.01c-0.28,0-0.56-0.07-0.83,0.08L41.52,57.45z"/>
		<path class="st0" d="M91.69,135.55c-0.02,3.22-0.03,6.43-0.05,9.65c-0.01,1.45,0,1.45-1.44,1.45c-1.18,0-2.35-0.02-3.53,0.01
			c-0.45,0.01-0.63-0.12-0.63-0.6c0.02-3.32,0.01-6.64,0.01-9.96c0-0.26-0.09-0.61,0.37-0.59c1.76,0.04,3.52-0.1,5.28,0.07
			C91.71,135.57,91.69,135.55,91.69,135.55z"/>
		<path class="st0" d="M136.36,85.38c-0.14,1.61-0.04,3.22-0.06,4.82c-0.01,0.41-0.04,0.65-0.56,0.65
			c-3.56-0.03-7.11-0.02-10.67-0.03c0,0,0.02,0.02,0.02,0.02c0.01-1.66,0.03-3.31,0.01-4.97c0-0.45,0.12-0.62,0.59-0.62
			c3.36,0.02,6.73,0.01,10.09,0.01c0.2,0,0.41-0.01,0.58,0.13C136.38,85.39,136.36,85.38,136.36,85.38z"/>
		<path class="st0" d="M13.52,96.4c-1.64,0-3.27-0.03-4.9,0.01c-0.59,0.01-0.74-0.18-0.72-0.74c0.04-1.38,0.03-2.76,0-4.14
			c-0.01-0.5,0.09-0.72,0.66-0.71c3.3,0.03,6.59,0.02,9.89,0.01c0.43,0,0.64,0.06,0.63,0.57c-0.03,1.48-0.03,2.96,0,4.45
			c0.01,0.44-0.14,0.56-0.57,0.56C16.84,96.39,15.18,96.4,13.52,96.4z"/>
		<path class="st0" d="M91.71,113.03c-1.16,0.26-2.34,0.07-3.5,0.1c-0.68,0.02-1.56,0.3-2-0.13c-0.45-0.43-0.14-1.31-0.14-1.99
			c-0.02-2.76,0.01-5.52-0.02-8.28c-0.01-0.56,0.13-0.76,0.72-0.74c1.38,0.04,2.76,0.05,4.14,0c0.64-0.02,0.75,0.22,0.74,0.79
			c-0.03,3.14-0.01,6.29-0.01,9.44c0,0.28,0.03,0.56,0.05,0.83C91.69,113.05,91.71,113.03,91.71,113.03z"/>
		<path class="st0" d="M58.22,135.48c-1.69,0-3.37,0-5.06,0.02c-0.46,0.01-0.63-0.12-0.62-0.6c0.03-1.48,0.02-2.96,0-4.45
			c-0.01-0.45,0.17-0.57,0.59-0.57c1.48,0.02,2.96,0.02,4.45,0c0.49-0.01,0.59,0.19,0.59,0.64c-0.01,1.66,0.02,3.32,0.03,4.98
			L58.22,135.48z"/>
		<path class="st0" d="M136.31,57.4c-1.61-0.02-3.22-0.06-4.83-0.03c-0.66,0.01-0.82-0.2-0.8-0.82c0.04-1.38,0.03-2.76,0.01-4.14
			c-0.01-0.48,0.12-0.68,0.64-0.67c1.46,0.03,2.91,0.03,4.37,0c0.48-0.01,0.61,0.16,0.6,0.62c-0.02,1.69-0.01,3.37-0.02,5.06
			C136.29,57.42,136.31,57.4,136.31,57.4z"/>
		<path class="st0" d="M113.89,57.38c0.02-1.63,0.06-3.26,0.04-4.89c-0.01-0.55,0.12-0.77,0.72-0.75c1.4,0.04,2.81,0.03,4.21,0
			c0.52-0.01,0.72,0.13,0.7,0.68c-0.04,1.4-0.04,2.81,0,4.21c0.02,0.56-0.13,0.75-0.72,0.74c-1.66-0.04-3.32-0.01-4.98-0.01
			L113.89,57.38z"/>
		<path class="st0" d="M58.18,141.03c-0.01,1.66-0.04,3.32-0.01,4.98c0.01,0.52-0.17,0.66-0.66,0.65c-1.43-0.02-2.86-0.03-4.29,0
			c-0.55,0.01-0.69-0.19-0.68-0.71c0.03-1.4,0.03-2.81,0-4.22c-0.01-0.53,0.14-0.71,0.68-0.7c1.66,0.03,3.32,0.01,4.98,0.01
			C58.2,141.06,58.18,141.03,58.18,141.03z"/>
		<path class="st0" d="M80.46,82.46c0-0.74,0.02-1.48-0.01-2.22c-0.01-0.41,0.1-0.59,0.55-0.59c1.51,0.02,3.02,0.02,4.53,0
			c0.4,0,0.54,0.14,0.53,0.53c-0.01,1.51-0.02,3.02,0,4.53c0.01,0.46-0.19,0.56-0.6,0.55c-1.48-0.02-2.97-0.02-4.45,0
			c-0.43,0.01-0.58-0.14-0.57-0.58C80.48,83.95,80.46,83.2,80.46,82.46z"/>
		<path class="st0" d="M141.86,143.84c0-0.74,0.01-1.48,0-2.22c-0.01-0.36,0.06-0.57,0.5-0.56c1.53,0.02,3.07,0.02,4.6,0
			c0.43-0.01,0.51,0.19,0.51,0.56c-0.01,1.51-0.01,3.02,0,4.53c0,0.41-0.16,0.53-0.55,0.53c-1.51-0.01-3.02-0.02-4.53,0
			c-0.46,0.01-0.55-0.2-0.54-0.6C141.87,145.32,141.86,144.58,141.86,143.84z"/>
		<path class="st0" d="M141.79,102.11c-0.97-0.23-1.96-0.09-2.94-0.09c-0.83,0-1.67-0.13-2.49,0.08l0.02,0.02
			c-0.18-1.78-0.04-3.57-0.08-5.35c-0.01-0.32,0.18-0.37,0.44-0.37c1.56,0,3.11,0,4.67,0c0.26,0,0.45,0.06,0.44,0.37
			c-0.04,1.78,0.1,3.57-0.08,5.35C141.77,102.13,141.79,102.11,141.79,102.11z"/>
		<path class="st0" d="M136.36,102.1c-0.14,1.58-0.05,3.16-0.05,4.75c0,0.54-0.1,0.77-0.7,0.74c-1.68-0.08-3.37,0.07-5.06-0.09
			c0,0,0,0.01,0,0c0.29-0.33,0.13-0.73,0.14-1.1c0.02-1.28,0.01-2.56,0.01-3.83c0-0.24-0.07-0.57,0.33-0.56
			c1.78,0.04,3.57-0.14,5.35,0.1C136.38,102.12,136.36,102.1,136.36,102.1z"/>
		<path class="st0" d="M69.14,90.78c0.27-0.19,0.15-0.47,0.15-0.7c0.01-1.4,0.02-2.81,0-4.21c-0.01-0.47,0.15-0.62,0.62-0.61
			c1.45,0.02,2.91,0.02,4.36,0c0.44-0.01,0.64,0.09,0.63,0.59c-0.03,1.48-0.01,2.96-0.01,4.44c0,0.29,0.03,0.57-0.41,0.56
			C72.71,90.8,70.92,90.92,69.14,90.78C69.14,90.77,69.14,90.78,69.14,90.78z"/>
		<path class="st0" d="M52.45,74.16c-1.81-0.11-3.63-0.09-5.44-0.01l0.02,0.02c-0.09-1.94-0.1-3.88,0-5.81c0,0-0.02,0.02-0.02,0.02
			c0.82,0.27,1.66,0.08,2.5,0.11c0.82,0.04,1.64,0,2.45,0.01c0.24,0,0.57-0.07,0.56,0.33c-0.04,1.78,0.14,3.57-0.1,5.35
			C52.44,74.18,52.45,74.16,52.45,74.16z"/>
		<path class="st0" d="M41.51,57.44c-0.17,1.81-0.16,3.62,0,5.43l0.02-0.02c-1.78,0.16-3.57,0.03-5.35,0.07
			c-0.32,0.01-0.37-0.18-0.37-0.44c0-1.56,0-3.11,0-4.67c0-0.26,0.06-0.45,0.37-0.44c1.78,0.05,3.57-0.11,5.35,0.09
			C41.52,57.45,41.51,57.44,41.51,57.44z"/>
		<path class="st0" d="M91.72,24.01c-0.17-1.78-0.03-3.57-0.08-5.36c-0.01-0.31,0.14-0.39,0.42-0.39c1.56,0.01,3.12,0.01,4.68,0
			c0.32,0,0.47,0.09,0.47,0.43c-0.01,1.58-0.01,3.17,0,4.75c0,0.5-0.34,0.42-0.64,0.42c-1.38,0-2.76,0-4.14,0.01
			C92.19,23.87,91.91,23.76,91.72,24.01C91.71,24,91.72,24.01,91.72,24.01z"/>
		<path class="st0" d="M74.98,18.18c-1.75,0.18-3.51,0.03-5.27,0.08c-0.43,0.01-0.41-0.27-0.41-0.56c0-1.38,0.01-2.75-0.01-4.13
			c0-0.27,0.11-0.56-0.12-0.8c0,0-0.01,0.01-0.01,0.01c1.8-0.19,3.6-0.04,5.41-0.08c0.41-0.01,0.33,0.31,0.33,0.55
			c0.01,1.4,0,2.8,0.01,4.2c0,0.25,0.04,0.5,0.06,0.75C74.96,18.2,74.98,18.18,74.98,18.18z"/>
		<path class="st0" d="M69.21,141.02c0.2,1.75,0.04,3.51,0.08,5.26c0.01,0.31-0.2,0.37-0.45,0.37c-1.55,0-3.11-0.01-4.66,0.01
			c-0.46,0.01-0.46-0.26-0.46-0.59c0.01-1.68,0.01-3.36,0.01-5.04l-0.02,0.02c1.85,0,3.7,0,5.55,0L69.21,141.02z"/>
		<path class="st0" d="M88.88,12.7c-0.77,0-1.53-0.02-2.3,0.01c-0.4,0.01-0.54-0.14-0.53-0.53c0.01-1.51,0.02-3.01,0-4.52
			c-0.01-0.45,0.19-0.56,0.6-0.56c1.48,0.02,2.96,0.02,4.44,0c0.44-0.01,0.56,0.16,0.56,0.58c-0.02,1.48-0.03,2.96,0,4.44
			c0.01,0.49-0.17,0.61-0.62,0.59C90.31,12.68,89.6,12.7,88.88,12.7z"/>
		<path class="st0" d="M125.12,141.02c1.61,0.01,3.22,0.05,4.83,0.02c0.62-0.01,0.78,0.2,0.76,0.78c-0.04,1.41-0.03,2.81,0,4.22
			c0.01,0.46-0.14,0.63-0.61,0.62c-1.48-0.02-2.97-0.02-4.45,0c-0.39,0-0.54-0.11-0.54-0.52c0.03-1.71,0.02-3.43,0.03-5.14
			C125.14,141,125.12,141.02,125.12,141.02z"/>
		<path class="st0" d="M91.67,90.87c-0.01,1.63-0.04,3.26-0.03,4.89c0.01,0.5-0.14,0.66-0.64,0.65c-1.45-0.03-2.91-0.03-4.36,0
			c-0.48,0.01-0.61-0.16-0.6-0.62c0.02-1.45,0.01-2.91,0.01-4.36c0-0.31-0.04-0.61,0.45-0.6c1.73,0.03,3.46,0.04,5.2,0.06
			C91.7,90.9,91.67,90.87,91.67,90.87z"/>
		<path class="st0" d="M63.65,102.12c1.16-0.26,2.34-0.07,3.51-0.1c0.68-0.02,1.56-0.3,2,0.13c0.44,0.43,0.12,1.31,0.14,1.99
			c0.03,0.97-0.01,1.94,0.01,2.92c0.01,0.39-0.11,0.54-0.52,0.53c-1.51-0.02-3.02-0.02-4.53,0c-0.46,0.01-0.55-0.17-0.55-0.58
			c0-1.63-0.03-3.27-0.04-4.9C63.66,102.11,63.65,102.12,63.65,102.12z"/>
		<path class="st0" d="M47.01,74.15c-0.01,1.63-0.04,3.27-0.02,4.9c0,0.45-0.1,0.63-0.59,0.62c-1.46-0.03-2.91-0.02-4.37,0
			c-0.44,0.01-0.64-0.07-0.63-0.58c0.03-1.48,0.01-2.96,0.01-4.45c0-0.3,0-0.56,0.42-0.54c1.73,0.05,3.47-0.09,5.2,0.08
			C47.04,74.17,47.01,74.15,47.01,74.15z"/>
		<path class="st0" d="M41.51,62.86c1.6,0.02,3.2,0.06,4.8,0.04c0.53-0.01,0.69,0.13,0.69,0.67c-0.02,1.6,0.01,3.2,0.03,4.8
			c0,0,0.02-0.02,0.02-0.02c-0.5,0.28-1.04,0.12-1.56,0.13c-1.17,0.03-2.34,0.01-3.51,0c-0.24,0-0.56,0.06-0.55-0.33
			c0.05-1.77-0.15-3.55,0.1-5.32C41.52,62.85,41.51,62.86,41.51,62.86z"/>
		<path class="st0" d="M113.87,57.36c0.1,1.87,0.18,3.75-0.05,5.62c0,0,0.02-0.02,0.01-0.01c-1.61-0.02-3.22-0.05-4.82-0.04
			c-0.49,0-0.66-0.11-0.65-0.63c0.03-1.46,0.02-2.91,0-4.37c-0.01-0.41,0.08-0.59,0.54-0.58c1.66,0.03,3.32,0.03,4.98,0.03
			C113.89,57.38,113.87,57.36,113.87,57.36z"/>
		<path class="st0" d="M58.2,135.51c1.84,0.01,3.68,0.02,5.52,0.02l-0.02-0.02c0,1.85,0,3.7,0,5.54l0.02-0.02
			c-1.85,0-3.69,0-5.54,0.01c0,0,0.02,0.02,0.02,0.02c-0.07-1.86-0.1-3.71,0.02-5.57C58.22,135.48,58.2,135.51,58.2,135.51z"/>
		<path class="st0" d="M113.95,110.42c0,0.71-0.03,1.43,0.01,2.14c0.02,0.49-0.17,0.6-0.62,0.6c-1.45-0.02-2.91-0.02-4.36,0
			c-0.46,0.01-0.61-0.13-0.6-0.6c0.03-1.48,0.03-2.96,0-4.44c-0.01-0.45,0.16-0.55,0.57-0.55c1.48,0.02,2.96,0.02,4.44,0
			c0.42-0.01,0.59,0.1,0.58,0.55C113.92,108.89,113.95,109.65,113.95,110.42z"/>
		<path class="st0" d="M35.8,26.64c0,2.53-0.01,5.06,0.01,7.59c0.01,0.56-0.09,0.79-0.74,0.79c-5.09-0.03-10.17-0.02-15.26,0
			c-0.59,0-0.78-0.14-0.77-0.76c0.03-5.09,0.03-10.17,0-15.26c0-0.63,0.2-0.75,0.78-0.75c5.09,0.02,10.17,0.02,15.26,0
			c0.57,0,0.74,0.14,0.73,0.72C35.78,21.53,35.8,24.08,35.8,26.64z"/>
		<path class="st0" d="M127.92,35c-2.56,0-5.11-0.02-7.67,0.01c-0.59,0.01-0.72-0.18-0.71-0.74c0.02-5.09,0.02-10.17,0-15.26
			c0-0.58,0.13-0.78,0.75-0.78c5.09,0.03,10.17,0.03,15.26,0c0.62,0,0.76,0.19,0.76,0.78c-0.02,5.09-0.02,10.17,0,15.26
			c0,0.56-0.13,0.74-0.72,0.74C133.03,34.99,130.48,35,127.92,35z"/>
		<path class="st0" d="M27.43,118.76c2.56,0,5.11,0.02,7.67-0.01c0.59-0.01,0.72,0.17,0.72,0.73c-0.02,5.11-0.02,10.22,0,15.33
			c0,0.52-0.12,0.7-0.67,0.7c-5.14-0.02-10.27-0.02-15.41,0c-0.55,0-0.68-0.17-0.68-0.7c0.02-5.11,0.02-10.22,0-15.33
			c0-0.56,0.13-0.75,0.72-0.74C22.32,118.77,24.87,118.76,27.43,118.76z"/>
	</g>
</g>
</svg>
